<svg width="65" height="65" viewBox="0 0 65 65" fill="none" xmlns="http://www.w3.org/2000/svg">
<path d="M62.74 23.52V21.56V19.6H60.78V17.64H58.8199V15.68V13.72H56.86V11.76H54.9H52.94V9.80005V7.84003H50.98V5.88H49.02H47.06V3.92004H45.1V1.96002H43.13H41.17H39.21V0H37.25H35.29H33.33H31.37H29.41H27.45H25.49V1.96002H23.53H21.5699H19.6V3.92004H17.64V5.88H15.68H13.72V7.84003H11.7599V9.80005V11.76H9.79999H7.83997V13.72H5.88V15.68V17.64H3.91998V19.6H1.95996V21.56V23.52V25.49H0V27.45V29.41V31.37V33.33V35.29V37.25V39.21H1.95996V41.17V43.13V45.09H3.91998V47.05H5.88V49.02V50.98H7.83997V52.94H9.79999H11.7599V54.9V56.86H13.72V58.82H15.68H17.64V60.78H19.6V62.74H21.5699H23.53H25.49V64.7H27.45H29.41H31.37H33.33H35.29H37.25H39.21V62.74H41.17H43.13H45.1V60.78H47.06V58.82H49.02H50.98V56.86H52.94V54.9V52.94H54.9H56.86V50.98H58.8199V49.02V47.05H60.78V45.09H62.74V43.13V41.17V39.21H64.7V37.25V35.29V33.33V31.37V29.41V27.45V25.49H62.74V23.52ZM50.98 13.72V15.68H52.94H54.9V17.64H56.86V19.6V21.56H58.8199V23.52V25.49V27.45H56.86V25.49V23.52V21.56H54.9V19.6V17.64H52.94H50.98V15.68H49.02V13.72V11.76H47.06H45.1V9.80005H43.13V7.84003H41.17H39.21V5.88H41.17H43.13V7.84003H45.1V9.80005H47.06H49.02V11.76H50.98V13.72Z" fill="#BB0000"/>
</svg>
